<svg width="30" height="30" viewBox="0 0 30 30" fill="none" xmlns="http://www.w3.org/2000/svg">
<path d="M23.4375 10.3125C23.4375 11.0029 23.9971 11.5625 24.6875 11.5625C25.3779 11.5625 25.9375 11.0029 25.9375 10.3125V8.75031H27.5C28.1904 8.75031 28.75 8.19066 28.75 7.50031C28.75 6.80995 28.1904 6.25031 27.5 6.25031L25.9375 6.25031V4.6875C25.9375 3.99714 25.3779 3.4375 24.6875 3.4375C23.9971 3.4375 23.4375 3.99714 23.4375 4.6875V6.25031L21.875 6.25031C21.1846 6.25031 20.625 6.80995 20.625 7.50031C20.625 8.19066 21.1846 8.75031 21.875 8.75031H23.4375V10.3125Z" fill="white"/>
<path fill-rule="evenodd" clip-rule="evenodd" d="M7.5 9.37515C7.5 6.26855 10.0184 3.75015 13.125 3.75015C16.2316 3.75015 18.75 6.26855 18.75 9.37515C18.75 12.4818 16.2316 15.0002 13.125 15.0002C10.0184 15.0002 7.5 12.4818 7.5 9.37515ZM13.125 6.25015C11.3991 6.25015 10 7.64926 10 9.37515C10 11.101 11.3991 12.5002 13.125 12.5002C14.8509 12.5002 16.25 11.101 16.25 9.37515C16.25 7.64926 14.8509 6.25015 13.125 6.25015Z" fill="white"/>
<path fill-rule="evenodd" clip-rule="evenodd" d="M13.125 17.5002C8.18898 17.5002 5.43828 19.2679 4.16637 20.4488C3.3705 21.1877 3.125 22.1918 3.125 23.0377C3.125 25.5023 5.1229 27.5002 7.58743 27.5002H18.6626C21.1271 27.5002 23.125 25.5023 23.125 23.0377C23.125 22.1918 22.8795 21.1877 22.0836 20.4488C20.8117 19.2679 18.061 17.5002 13.125 17.5002ZM5.86736 22.2809C6.69998 21.5079 8.85078 20.0002 13.125 20.0002C17.3992 20.0002 19.55 21.5079 20.3826 22.2809C20.5064 22.3958 20.625 22.6287 20.625 23.0377C20.625 24.1215 19.7464 25.0002 18.6626 25.0002H7.58743C6.50361 25.0002 5.625 24.1215 5.625 23.0377C5.625 22.6287 5.74362 22.3958 5.86736 22.2809Z" fill="white"/>
</svg>
