<svg width="30" height="30" viewBox="0 0 30 30" fill="none" xmlns="http://www.w3.org/2000/svg">
<path fill-rule="evenodd" clip-rule="evenodd" d="M7.5 9.375C7.5 6.2684 10.0184 3.75 13.125 3.75C16.2316 3.75 18.75 6.2684 18.75 9.375C18.75 12.4816 16.2316 15 13.125 15C10.0184 15 7.5 12.4816 7.5 9.375ZM13.125 6.25C11.3991 6.25 10 7.64911 10 9.375C10 11.1009 11.3991 12.5 13.125 12.5C14.8509 12.5 16.25 11.1009 16.25 9.375C16.25 7.64911 14.8509 6.25 13.125 6.25Z" fill="white"/>
<path d="M21.8153 8.60485C21.3271 9.09301 21.3271 9.88446 21.8153 10.3726C22.3034 10.8608 23.0949 10.8608 23.583 10.3726L24.6876 9.26807L25.7921 10.3726C26.2803 10.8608 27.0718 10.8608 27.5599 10.3726C28.0481 9.88447 28.0481 9.09301 27.5599 8.60485L26.4554 7.50031L27.5605 6.39514C28.0487 5.90699 28.0487 5.11553 27.5605 4.62738C27.0724 4.13922 26.2809 4.13922 25.7928 4.62738L24.6876 5.73254L23.5824 4.62738C23.0943 4.13922 22.3028 4.13922 21.8147 4.62738C21.3265 5.11553 21.3265 5.90699 21.8147 6.39515L22.9198 7.50031L21.8153 8.60485Z" fill="white"/>
<path fill-rule="evenodd" clip-rule="evenodd" d="M13.125 17.5C8.18898 17.5 5.43828 19.2677 4.16637 20.4486C3.3705 21.1875 3.125 22.1917 3.125 23.0376C3.125 25.5021 5.1229 27.5 7.58743 27.5H18.6626C21.1271 27.5 23.125 25.5021 23.125 23.0376C23.125 22.1917 22.8795 21.1875 22.0836 20.4486C20.8117 19.2677 18.061 17.5 13.125 17.5ZM5.86736 22.2807C6.69998 21.5077 8.85078 20 13.125 20C17.3992 20 19.55 21.5077 20.3826 22.2807C20.5064 22.3956 20.625 22.6286 20.625 23.0376C20.625 24.1214 19.7464 25 18.6626 25H7.58743C6.50361 25 5.625 24.1214 5.625 23.0376C5.625 22.6286 5.74362 22.3956 5.86736 22.2807Z" fill="white"/>
</svg>
