<svg width="25" height="25" viewBox="0 0 25 25" fill="none" xmlns="http://www.w3.org/2000/svg">
<path d="M8.75 12.5C8.75 11.8096 8.19036 11.25 7.5 11.25C6.80964 11.25 6.25 11.8096 6.25 12.5C6.25 13.1904 6.80964 13.75 7.5 13.75C8.19036 13.75 8.75 13.1904 8.75 12.5Z" fill="white"/>
<path d="M12.5 11.25C13.1904 11.25 13.75 11.8096 13.75 12.5C13.75 13.1904 13.1904 13.75 12.5 13.75C11.8096 13.75 11.25 13.1904 11.25 12.5C11.25 11.8096 11.8096 11.25 12.5 11.25Z" fill="white"/>
<path d="M18.75 12.5C18.75 11.8096 18.1904 11.25 17.5 11.25C16.8096 11.25 16.25 11.8096 16.25 12.5C16.25 13.1904 16.8096 13.75 17.5 13.75C18.1904 13.75 18.75 13.1904 18.75 12.5Z" fill="white"/>
<path fill-rule="evenodd" clip-rule="evenodd" d="M25 12.5C25 14.7768 24.3913 16.9114 23.3277 18.75L24.0431 23.4463C24.1893 24.406 23.2335 25.1588 22.3348 24.7918L18.75 23.3277C16.9114 24.3913 14.7768 25 12.5 25C5.59644 25 0 19.4036 0 12.5C0 5.59644 5.59644 0 12.5 0C19.4036 0 25 5.59644 25 12.5ZM21.1637 17.4982C20.8791 17.9902 20.7706 18.5645 20.8562 19.1265L21.2397 21.6441L19.6952 21.0133C18.979 20.7208 18.1678 20.7763 17.4982 21.1637C16.0299 22.0131 14.3256 22.5 12.5 22.5C6.97715 22.5 2.5 18.0228 2.5 12.5C2.5 6.97715 6.97715 2.5 12.5 2.5C18.0228 2.5 22.5 6.97715 22.5 12.5C22.5 14.3256 22.0131 16.0299 21.1637 17.4982Z" fill="white"/>
</svg>
